<svg xmlns="http://www.w3.org/2000/svg" xmlns:xlink="http://www.w3.org/1999/xlink" width="189" zoomAndPan="magnify" viewBox="0 0 141.75 141.750002" height="189" preserveAspectRatio="xMidYMid meet" version="1.0"><defs><g/><clipPath id="92ef2400d8"><path d="M 0 0 L 141.5 0 L 141.5 141.5 L 0 141.5 Z M 0 0 " clip-rule="nonzero"/></clipPath><clipPath id="815c7acd7e"><path d="M 0 0 L 141.5 0 L 141.5 141.5 L 0 141.5 Z M 0 0 " clip-rule="nonzero"/></clipPath><clipPath id="8778486b26"><path d="M 14 0 L 127 0 L 127 141.5 L 14 141.5 Z M 14 0 " clip-rule="nonzero"/></clipPath><clipPath id="cb305421d6"><path d="M 0.136719 4 L 108 4 L 108 141.5 L 0.136719 141.5 Z M 0.136719 4 " clip-rule="nonzero"/></clipPath><clipPath id="9c4b1c63db"><rect x="0" width="108" y="0" height="138"/></clipPath><clipPath id="034baf336e"><path d="M 4 0 L 112.738281 0 L 112.738281 139 L 4 139 Z M 4 0 " clip-rule="nonzero"/></clipPath><clipPath id="9c108aa00b"><rect x="0" width="109" y="0" height="139"/></clipPath><clipPath id="e9e7341def"><rect x="0" width="113" y="0" height="142"/></clipPath><clipPath id="f0e220be2d"><rect x="0" width="142" y="0" height="142"/></clipPath></defs><g clip-path="url(#92ef2400d8)"><path fill="#ffffff" d="M 0 0 L 141.5 0 L 141.5 141.5 L 0 141.5 Z M 0 0 " fill-opacity="1" fill-rule="nonzero"/><g transform="matrix(1, 0, 0, 1, 0, 0.000000000000031676)"><g clip-path="url(#f0e220be2d)"><g clip-path="url(#815c7acd7e)"><path fill="#000000" d="M 0 0 L 141.519531 0 L 141.519531 141.519531 L 0 141.519531 Z M 0 0 " fill-opacity="1" fill-rule="nonzero"/></g><g clip-path="url(#8778486b26)"><g transform="matrix(1, 0, 0, 1, 14, 0.000000000000031676)"><g clip-path="url(#e9e7341def)"><g clip-path="url(#cb305421d6)"><g transform="matrix(1, 0, 0, 1, 0.000000000000001776, 4)"><g clip-path="url(#9c4b1c63db)"><g fill="#ffffff" fill-opacity="1"><g transform="translate(0.150044, 127.271801)"><g><path d="M 100.828125 -75.625 L 98.71875 -75.625 C 98.71875 -78.882812 96.445312 -80.515625 91.90625 -80.515625 L 35.359375 -80.515625 L 35.359375 -53.5625 L 72.125 -53.5625 C 75.039062 -53.5625 76.992188 -53.765625 77.984375 -54.171875 C 78.972656 -54.585938 79.46875 -55.550781 79.46875 -57.0625 L 81.578125 -57.0625 L 81.578125 -37.109375 L 79.46875 -37.109375 C 79.46875 -39.328125 78.707031 -40.695312 77.1875 -41.21875 C 75.675781 -41.75 73.925781 -42.015625 71.9375 -42.015625 L 35.359375 -42.015625 L 35.359375 -6.296875 C 35.359375 -5.015625 35.648438 -3.992188 36.234375 -3.234375 C 36.816406 -2.472656 37.925781 -2.09375 39.5625 -2.09375 L 39.5625 0 L 16.453125 0 L 16.453125 -2.09375 C 18.085938 -2.09375 19.195312 -2.472656 19.78125 -3.234375 C 20.363281 -3.992188 20.65625 -5.015625 20.65625 -6.296875 L 20.65625 -85.765625 C 20.65625 -87.054688 20.363281 -88.078125 19.78125 -88.828125 C 19.195312 -89.585938 18.085938 -89.96875 16.453125 -89.96875 L 16.453125 -92.078125 L 91.03125 -92.078125 C 93.945312 -92.078125 95.957031 -92.25 97.0625 -92.59375 C 98.164062 -92.945312 98.71875 -93.941406 98.71875 -95.578125 L 100.828125 -95.578125 Z M 100.828125 -75.625 "/></g></g></g></g></g></g><g clip-path="url(#034baf336e)"><g transform="matrix(1, 0, 0, 1, 4, 0.000000000000031676)"><g clip-path="url(#9c108aa00b)"><g fill="#ffffff" fill-opacity="1"><g transform="translate(108.494797, 10.577804)"><g><path d="M -39.734375 92.484375 L -39.734375 90.375 C -37.972656 90.375 -36.828125 89.929688 -36.296875 89.046875 C -35.773438 88.171875 -35.515625 86.96875 -35.515625 85.4375 L -35.515625 11.609375 L -94.59375 11.609375 C -98.6875 11.609375 -100.734375 13.363281 -100.734375 16.875 L -102.84375 16.875 L -102.84375 -3.875 L -100.734375 -3.875 C -100.734375 -2.34375 -100.234375 -1.3125 -99.234375 -0.78125 C -98.242188 -0.257812 -96.753906 0 -94.765625 0 L -16.53125 0 L -16.53125 2.109375 C -18.164062 2.109375 -19.273438 2.488281 -19.859375 3.25 C -20.453125 4.007812 -20.75 5.035156 -20.75 6.328125 L -20.75 86.140625 C -20.75 87.316406 -20.484375 88.316406 -19.953125 89.140625 C -19.421875 89.960938 -18.28125 90.375 -16.53125 90.375 L -16.53125 92.484375 Z M -39.734375 92.484375 "/></g></g></g></g></g></g></g></g></g></g></g></g></svg>